<?xml version="1.0" standalone="no"?><!DOCTYPE svg PUBLIC "-//W3C//DTD SVG 1.1//EN" "http://www.w3.org/Graphics/SVG/1.1/DTD/svg11.dtd"><svg t="1741109032438" class="icon" viewBox="0 0 1080 1024" version="1.1" xmlns="http://www.w3.org/2000/svg" p-id="9803" xmlns:xlink="http://www.w3.org/1999/xlink" width="210.9375" height="200"><path d="M407.552 904.42H139.207a14.222 14.222 0 0 1-14.222-14.223V131.812a14.222 14.222 0 0 1 14.222-14.223H876.26a14.222 14.222 0 0 1 14.222 14.223v193.024a42.667 42.667 0 0 0 85.333 0V131.812a99.556 99.556 0 0 0-99.555-99.556H139.207a99.556 99.556 0 0 0-99.555 99.556v758.385c0 54.955 44.544 99.556 99.555 99.556h268.345a42.667 42.667 0 1 0 0-85.333z" p-id="9804" fill="#ffffff"></path><path d="M243.086 329.842H733.07a42.667 42.667 0 0 0 0-85.334H243.086a42.667 42.667 0 0 0 0 85.334z m0 184.206h349.867a42.667 42.667 0 0 0 0-85.333H243.086a42.667 42.667 0 1 0 0 85.333z m0 184.206h256.967a42.667 42.667 0 1 0 0-85.333H243.086a42.667 42.667 0 0 0 0 85.333zM887.58 440.89a42.667 42.667 0 0 1 59.79 0.057l120.207 118.215a42.667 42.667 0 0 1 0.853 60.018L726.756 974.79a42.667 42.667 0 0 1-22.585 12.345l-173.682 33.849a42.667 42.667 0 0 1-49.493-52.338l40.277-160.142a42.667 42.667 0 0 1 11.548-20.025l354.76-347.591z m-286.492 400.1l-20.935 83.342 94.435-18.375L977.636 590.45l-60.246-59.278-316.302 309.816z" p-id="9805" fill="#ffffff"></path><path d="M925.525 644.665l-64.284-58.311-48.981 48.014 66.332 59.108z" p-id="9806" fill="#ffffff"></path></svg>