<?xml version="1.0" standalone="no"?><!DOCTYPE svg PUBLIC "-//W3C//DTD SVG 1.1//EN" "http://www.w3.org/Graphics/SVG/1.1/DTD/svg11.dtd"><svg t="1741109007572" class="icon" viewBox="0 0 1027 1024" version="1.1" xmlns="http://www.w3.org/2000/svg" p-id="7797" xmlns:xlink="http://www.w3.org/1999/xlink" width="200.5859375" height="200"><path d="M859.73066 678.4l-4.267-4.267 4.266-4.266c38.4-29.867 59.734-72.534 59.734-123.734 0-85.333-68.267-157.866-157.867-157.866-85.333 0-157.867 68.266-157.867 157.866 0 46.934 21.334 93.867 59.734 123.734l4.266 4.266-4.266 4.267c-98.134 42.667-166.4 136.533-166.4 243.2v55.467c0 12.8 8.533 21.333 21.333 21.333h482.133c12.8 0 21.334-8.533 21.334-21.333V921.6c8.533-106.667-55.467-200.533-162.134-243.2z m-200.534-128c0-59.733 46.933-106.667 106.667-106.667 59.733 0 106.666 46.934 106.666 106.667s-46.933 106.667-106.666 106.667c-59.734 0-106.667-46.934-106.667-106.667z m324.267 392.533H543.99666v-12.8c0-119.466 98.133-217.6 221.867-217.6s217.6 98.134 217.6 221.867v8.533zM377.59666 524.8l-140.8 140.8 42.667 34.133 153.6-153.6V294.4h-55.467v230.4z" fill="#ffffff" p-id="7798"></path><path d="M74.66366 584.533c-17.067-85.333-4.267-179.2 46.933-256 46.933-76.8 128-128 213.333-145.066 21.334-4.267 46.934-8.534 72.534-8.534 89.6 0 179.2 34.134 243.2 102.4l64-21.333c-76.8-89.6-192-145.067-307.2-145.067-29.867 0-55.467 4.267-85.334 8.534-106.666 25.6-196.266 85.333-256 179.2-59.733 89.6-81.066 196.266-55.466 307.2 34.133 157.866 162.133 281.6 320 311.466l42.666-59.733c-149.333-21.333-268.8-132.267-298.666-273.067z" fill="#ffffff" p-id="7799"></path></svg>